<?xml version="1.0" encoding="UTF-8" standalone="no"?>
<!-- Created with Inkscape (http://www.inkscape.org/) -->

<svg
   xmlns:dc="http://purl.org/dc/elements/1.1/"
   xmlns:cc="http://creativecommons.org/ns#"
   xmlns:rdf="http://www.w3.org/1999/02/22-rdf-syntax-ns#"
   xmlns:svg="http://www.w3.org/2000/svg"
   xmlns="http://www.w3.org/2000/svg"
   xmlns:sodipodi="http://sodipodi.sourceforge.net/DTD/sodipodi-0.dtd"
   xmlns:inkscape="http://www.inkscape.org/namespaces/inkscape"
   width="210mm"
   height="297mm"
   viewBox="0 0 210 297"
   version="1.1"
   id="svg8"
   inkscape:version="0.92.4 (5da689c313, 2019-01-14)"
   sodipodi:docname="drawing.svg">
  <defs
     id="defs2" />
  <sodipodi:namedview
     id="base"
     pagecolor="#ffffff"
     bordercolor="#666666"
     borderopacity="1.0"
     inkscape:pageopacity="0.0"
     inkscape:pageshadow="2"
     inkscape:zoom="0.35"
     inkscape:cx="-75.714286"
     inkscape:cy="560"
     inkscape:document-units="mm"
     inkscape:current-layer="g835"
     showgrid="false"
     inkscape:window-width="1366"
     inkscape:window-height="705"
     inkscape:window-x="-8"
     inkscape:window-y="-8"
     inkscape:window-maximized="1" />
  <metadata
     id="metadata5">
    <rdf:RDF>
      <cc:Work
         rdf:about="">
        <dc:format>image/svg+xml</dc:format>
        <dc:type
           rdf:resource="http://purl.org/dc/dcmitype/StillImage" />
        <dc:title></dc:title>
      </cc:Work>
    </rdf:RDF>
  </metadata>
  <g
     inkscape:label="Layer 1"
     inkscape:groupmode="layer"
     id="layer1">
    <g
       id="g835"
       transform="matrix(0.26458333,0,0,0.26458333,-87.388094,-3.5666658)">
      <g
         id="g831"
         style="opacity:0.95999995;fill:#f3ff00;fill-opacity:1"
         transform="translate(-585.71429,128.57143)"
         inkscape:export-xdpi="22.6875"
         inkscape:export-ydpi="22.6875">
        <g
           id="g827"
           style="fill:#f3ff00;fill-opacity:1">
          <path
             id="path815"
             d="m 123.873,179.324 c -3.839,0 -7.678,-1.465 -10.606,-4.394 L 75.005,136.67 c -5.858,-5.857 -5.858,-15.354 0,-21.213 5.857,-5.857 15.355,-5.857 21.213,0 l 38.262,38.261 c 5.858,5.857 5.858,15.354 0,21.213 -2.929,2.928 -6.768,4.393 -10.607,4.393 z"
             inkscape:connector-curvature="0"
             style="fill:#f3ff00;fill-opacity:1" />
          <path
             id="path817"
             d="m 385.197,182.666 c -3.839,0 -7.678,-1.465 -10.607,-4.393 -5.858,-5.857 -5.858,-15.355 0,-21.213 l 42.128,-42.128 c 5.857,-5.857 15.355,-5.857 21.213,0 5.858,5.857 5.858,15.355 0,21.213 l -42.128,42.128 c -2.928,2.928 -6.767,4.393 -10.606,4.393 z"
             inkscape:connector-curvature="0"
             style="fill:#f3ff00;fill-opacity:1" />
          <path
             id="path819"
             d="m 497,311.466 h -54.109 c -8.284,0 -15,-6.716 -15,-15 0,-8.284 6.716,-15 15,-15 H 497 c 8.284,0 15,6.716 15,15 0,8.284 -6.716,15 -15,15 z"
             inkscape:connector-curvature="0"
             style="fill:#f3ff00;fill-opacity:1" />
          <path
             id="path821"
             d="M 69.109,311.466 H 15 c -8.284,0 -15,-6.716 -15,-15 0,-8.284 6.716,-15 15,-15 h 54.109 c 8.284,0 15,6.716 15,15 0,8.284 -6.715,15 -15,15 z"
             inkscape:connector-curvature="0"
             style="fill:#f3ff00;fill-opacity:1" />
          <g
             id="g825"
             style="fill:#f3ff00;fill-opacity:1">
            <path
               id="path823"
               d="m 256.257,129.045 c -8.284,0 -15,-6.716 -15,-15 V 54.466 c 0,-8.284 6.716,-15 15,-15 8.284,0 15,6.716 15,15 v 59.579 c 0,8.284 -6.716,15 -15,15 z"
               inkscape:connector-curvature="0"
               style="fill:#f3ff00;fill-opacity:1" />
          </g>
        </g>
        <path
           id="path829"
           d="m 383.204,341.746 c 5.041,-14.142 7.796,-29.36 7.796,-45.212 0,-74.44 -60.56,-135 -135,-135 -74.44,0 -135,60.561 -135,135 0,15.852 2.755,31.07 7.796,45.212 z"
           inkscape:connector-curvature="0"
           style="fill:#f3ff00;fill-opacity:1" />
      </g>
      <path
         id="path833"
         d="M -73.714293,543.96257 H -585.71429 v -43.64514 h 511.999997 z"
         inkscape:connector-curvature="0"
         style="stroke-width:0.65805703"
         inkscape:export-xdpi="22.6875"
         inkscape:export-ydpi="22.6875" />
    </g>
  </g>
</svg>
